inDegrees=no
num_controls=7
num_derivatives=13
num_iterations=64
num_multipliers=7
num_parameters=0
num_slacks=7
num_states=26
objective=0.348209
objective_accelerations=0.037259
objective_balance=0.001614
objective_effort=0.031625
objective_height=0.269364
objective_ligament=0.008348
solver_duration=930.177183
status=Solve_Succeeded
success=true
DataType=double
version=3
OpenSimVersion=4.5
endheader
time	/jointset/ground_pelvis/pelvis_tilt/value	/jointset/ground_pelvis/pelvis_tx/value	/jointset/ground_pelvis/pelvis_ty/value	/jointset/hip_l/hip_flexion_l/value	/jointset/hip_l/hip_adduction_l/value	/jointset/hip_l/hip_rotation_l/value	/jointset/back/lumbar_extension/value	/jointset/patellofemoral_l/patellar_flexion_l/value	/jointset/knee_l/knee_flexion_l/value	/jointset/knee_l/knee_adduction_l/value	/jointset/knee_l/knee_rotation_l/value	/jointset/ankle_l/ankle_angle_l/value	/jointset/subtalar_l/subtalar_angle_l/value	/jointset/ground_pelvis/pelvis_tilt/speed	/jointset/ground_pelvis/pelvis_tx/speed	/jointset/ground_pelvis/pelvis_ty/speed	/jointset/hip_l/hip_flexion_l/speed	/jointset/hip_l/hip_adduction_l/speed	/jointset/hip_l/hip_rotation_l/speed	/jointset/back/lumbar_extension/speed	/jointset/patellofemoral_l/patellar_flexion_l/speed	/jointset/knee_l/knee_flexion_l/speed	/jointset/knee_l/knee_adduction_l/speed	/jointset/knee_l/knee_rotation_l/speed	/jointset/ankle_l/ankle_angle_l/speed	/jointset/subtalar_l/subtalar_angle_l/speed	/forceset/tau_hip_flexion_l	/forceset/tau_hip_adduction_l	/forceset/tau_hip_rotation_l	/forceset/tau_knee_flexion_l	/forceset/tau_ankle_angle_l	/forceset/tau_subtalar_angle_l	/forceset/tau_lumbar_extension	lambda_cid13_p0	lambda_cid13_p1	lambda_cid13_p2	lambda_cid13_p3	lambda_cid13_p4	lambda_cid13_p5	lambda_cid14_p0	/jointset/ground_pelvis/pelvis_tilt/accel	/jointset/ground_pelvis/pelvis_tx/accel	/jointset/ground_pelvis/pelvis_ty/accel	/jointset/hip_l/hip_flexion_l/accel	/jointset/hip_l/hip_adduction_l/accel	/jointset/hip_l/hip_rotation_l/accel	/jointset/back/lumbar_extension/accel	/jointset/patellofemoral_l/patellar_flexion_l/accel	/jointset/knee_l/knee_flexion_l/accel	/jointset/knee_l/knee_adduction_l/accel	/jointset/knee_l/knee_rotation_l/accel	/jointset/ankle_l/ankle_angle_l/accel	/jointset/subtalar_l/subtalar_angle_l/accel	gamma_cid13_p0	gamma_cid13_p1	gamma_cid13_p2	gamma_cid13_p3	gamma_cid13_p4	gamma_cid13_p5	gamma_cid14_p0
0	0.06554002952299959	0.09928692805684908	0.9071773168351632	0.1266922784136757	-0.3298130097393651	-0.2312430149541956	-0.2144969558742783	0.2051545070141879	0.2051545070141877	-0.09270187605326295	-0.1470157369294544	0.09024313228550125	0.1230132718785569	0	0	0	0	0	0	0	0	0	0	0	0	0	0.1271439278515825	-0.04108204228331459	0.0002285031015674633	-0.1730123834832929	0.05228836481599886	-0.03889366591593996	-0.08120910176818426	-9.837768544489256	17.70742521798009	-2.068484747832801	32.7587029659427	-381.5088547265829	-56.42440763906546	-25.22178810020959	-6.389932713669703	-4.539256277965045	-2.610957156369258	32.32624629558153	-1.490454190220698	8.600539303565737	-9.869685546856479	33.25236951140472	33.25236951139334	5.508884889987185	-2.925660717162849	9.641526296291357	1.508275881566104	1.212639708737975e-07	2.646528243884024e-06	-1.273793212401559e-06	3.370098091485542e-08	2.80993412419396e-06	1.985922885350164e-06	2.619633699919833e-07
0.01	0.0652415945962152	0.09906445729035195	0.907050674909382	0.1282575895735674	-0.3298847959177005	-0.2308124655314402	-0.2149992917685273	0.2067785381508616	0.2067785381508622	-0.09243155658757975	-0.1471477762641542	0.09071504416486134	0.1230882580085973	-0.05952458029606663	-0.04409838738412038	-0.0252724662714073	0.3109169315577138	-0.01420789703749253	0.08557113573149876	-0.09925210690049904	0.3222495617667818	0.3222495617667546	0.05361147028109156	-0.0259697364398045	0.0936475133254922	0.0149264728208027	0.1233959488918435	-0.04599095018135342	0.0003758479216880664	-0.173513992671323	0.05385173478337406	-0.03364039348254835	-0.07703220947410705	-9.014256159380171	15.31720540471494	-1.727923770096141	30.39554688550075	-383.7829362109837	-61.412117125625	-25.22519351674173	-5.70943106465171	-4.285758341158618	-2.476441542973036	30.15258629483379	-1.36378862771266	8.45488520537145	-9.770712469243863	31.32769728144412	31.32769728144736	5.219730685194063	-2.367189033240291	9.116199338238088	1.47395447665764	-3.708961913596249e-08	3.265985533722385e-06	-1.602178207138869e-06	2.968724541056417e-07	1.920117373039777e-06	2.294667971199582e-06	3.694498645430641e-07
0.02	0.0643527717910547	0.098412876975509	0.9066730982847973	0.1328677039908296	-0.3300942272998506	-0.2295423078518838	-0.2164576965733007	0.2115483544596293	0.21154835445963	-0.09163863190147993	-0.1475264247484222	0.09210139827498837	0.1233103331657097	-0.1180775756751948	-0.08582190966916728	-0.05018693976067785	0.6089606514741269	-0.02752904076295008	0.1679216513601777	-0.1912137821048873	0.6291570344187317	0.6291570344187429	0.1045210440831397	-0.04932182991365068	0.1828884461533817	0.02941780541441674	0.1196479699321029	-0.05089985807939337	0.0005231927418066374	-0.174015601859355	0.05541510475074818	-0.02838712104915829	-0.07285531718002988	-8.019676269274335	12.92183568521599	-1.414886341601894	28.06098948672366	-382.8874966514225	-65.81382554053457	-25.23318921969381	-6.195615730282014	-4.064283258150353	-2.539358599941907	29.75160396732138	-1.313103527813702	7.956415283001772	-8.411599207634316	30.18395168843835	30.18395168844009	4.968505594178503	-2.402132123971185	8.760210196770812	1.421247836128369	-1.954432091457225e-07	3.885442823560744e-06	-1.930563201876179e-06	5.600439272964281e-07	1.030300621885593e-06	2.603413057049e-06	4.769363590941449e-07
0.03	0.06288038902320235	0.09735536275540028	0.9060454654133334	0.1404007788686579	-0.3304320009072424	-0.2274677367276617	-0.218796511914447	0.2193148836697139	0.2193148836697137	-0.0903494924485666	-0.1481282826832595	0.09435864651011759	0.1236759598861917	-0.1760593478245871	-0.125330041563663	-0.07547384961201999	0.8954894364647414	-0.0398935596408509	0.2464401871330406	-0.2755607610551485	0.9217343361642574	0.921734336164261	0.1527130343643425	-0.07057594846128588	0.2677986262545367	0.04361967218399115	0.1135926609631	-0.04799501796673869	0.0009391170380727903	-0.1712080316046592	0.05475475300886829	-0.02878872967365893	-0.06784714575576273	-7.971005759415042	13.07144661541209	-1.420132638508472	26.66585027928317	-378.9454915496175	-63.93000399331269	-25.24089734416756	-5.548537632872964	-3.841331164672202	-2.543286974817123	27.77876218081799	-1.178587792810014	7.717164045260509	-8.297968478327126	28.43235288096546	28.43235288096299	4.6559283418989	-1.916401064830044	8.242093635675779	1.406101551900299	-1.772059881944334e-07	3.925236637917575e-06	-2.434094072883756e-06	6.059068200576971e-07	1.079192293768566e-06	3.011543440685076e-06	5.311918786558161e-07
0.04	0.06083837259873504	0.09591331661443196	0.905160977483939	0.1507341908795697	-0.3308895120484198	-0.2246244619815446	-0.221949141293017	0.2299347325899247	0.2299347325899243	-0.08859615657347998	-0.1489285516725076	0.09744213089003595	0.1241808943652752	-0.2320043069981844	-0.1627282938410835	-0.1015579513468304	1.169028078090815	-0.05147654752002158	0.3216623757391817	-0.3539765895896132	1.199820976444015	1.199820976443992	0.1973603285178546	-0.08900404079573537	0.3481356751112095	0.05727935713469839	0.1075373519940988	-0.04509017785408366	0.001355041334341403	-0.1684004613499618	0.05409440126698925	-0.02919033829815893	-0.06283897433149499	-7.793525260392292	13.22369498722285	-1.45458061211457	25.29852075747353	-372.602293830689	-61.55171633236049	-25.24112596068209	-5.78825313512302	-3.642307334735302	-2.698796976635566	27.15357529441317	-1.156797328067674	7.297145849657388	-7.225369124475015	27.28581939528467	27.28581939528268	4.259566368640391	-1.83692688133404	7.845583947874401	1.312811472354935	-1.553277195944628e-07	3.953078628037674e-06	-2.941236199072163e-06	6.472891235317595e-07	1.147438778497666e-06	3.421723005718816e-06	5.843498523414169e-07
0.05	0.05824123650016775	0.09410793341277693	0.9040095301981826	0.1637474068951672	-0.3314579931727883	-0.2210485318538681	-0.2258502283990134	0.2432673592943844	0.2432673592943852	-0.08641191686093423	-0.1499020414277868	0.1013074006388488	0.1248213431129577	-0.2870902452490403	-0.1979681941856428	-0.1289852388577159	1.431460097709139	-0.0620250651906936	0.3929166711901622	-0.4252638396251056	1.464273338851908	1.464273338851871	0.2389227659958962	-0.1051814986810969	0.4241494036948438	0.07080012366043054	0.1014474676300791	-0.04461599155924559	0.001800121346962587	-0.1668042059574203	0.05486685574630196	-0.02741490087121388	-0.05811355113053938	-6.915348495591694	12.37236933256001	-1.402820240685924	23.14407871780591	-364.9183243984937	-61.06278989220883	-25.22527012870226	-5.318867151324337	-3.407678746460415	-2.802524557065696	25.46476237073298	-0.9747937320078894	6.949135027504406	-6.933854145392313	25.66017352460685	25.66017352460603	4.020210551582061	-1.43188041889347	7.363987775993692	1.369908352615305	-1.040069329943447e-09	3.303846838360174e-06	-3.757283410178456e-06	5.299480788573149e-07	1.714032364970051e-06	3.926361966955959e-06	5.991733528228145e-07
0.06	0.05510322042284029	0.09196158173524743	0.9025762440535675	0.179320292521986	-0.332126142422952	-0.2167781460447446	-0.230434878245826	0.2591715553951363	0.2591715553951381	-0.08382892715076919	-0.1510220507972707	0.1059097517659752	0.1255966393478841	-0.3401803027501943	-0.2309219890159722	-0.1579257231186287	1.680962000335102	-0.07141017267900261	0.460553512028584	-0.4906891377528359	1.714134855702408	1.714134855702372	0.2771103280417783	-0.1183079636367089	0.4955519507739081	0.08424885458348066	0.09535758326606096	-0.04414180526440712	0.002245201359582982	-0.1652079505648782	0.05563931022561502	-0.02563946344426828	-0.05338812792958273	-5.955017469862012	11.52242130820576	-1.369285721177929	21.02399054706492	-355.7039649475125	-60.21471131665852	-25.18349455145155	-5.389076985182656	-3.185086231889314	-3.001436326641029	24.56755189594087	-0.9241152915950729	6.573654927145681	-6.052978742922611	24.36765028380585	24.3676502838072	3.584591282208482	-1.226728295384136	6.923347646960399	1.298404351818531	1.588227127941359e-07	2.626106679006985e-06	-4.586337151176028e-06	4.059239458397752e-07	2.301608987305311e-06	4.434978165927982e-06	6.123827702219299e-07
0.07000000000000001	0.05143924031941987	0.08949699483185317	0.9008444307755666	0.1973326347935206	-0.3328819328413944	-0.2118528184540464	-0.2356391740583395	0.2775065472877835	0.2775065472877852	-0.08087904639025395	-0.1522623416319718	0.111204414574395	0.1265071172365585	-0.3922519469017437	-0.2616093136303841	-0.1887608683104222	1.919413646827455	-0.07954393798928287	0.5238974331320877	-0.5492346683318698	1.950539527858218	1.950539527858366	0.3123042768030709	-0.1292659142330538	0.5626293781067477	0.09786393625846972	0.08892134626903336	-0.04265440151050406	0.002682992856261918	-0.1634537798825364	0.05663866318647917	-0.024267664540428	-0.04864154169714027	-4.900119169283233	10.8486365398399	-1.383735697909277	18.73476231936895	-345.6959618199321	-58.73986668027845	-25.10558916936796	-5.061622598221248	-2.952564189888498	-3.172676545843183	23.17009411583821	-0.7270316485210165	6.123373823780324	-5.615036752682517	22.92815379947454	22.92815379950129	3.402520363810018	-0.9585142792836876	6.487280327574021	1.395791780241741	3.471689425680704e-07	1.281905487269303e-06	-5.080338139314071e-06	1.637455787992342e-07	2.752111320605398e-06	4.38584485374407e-06	5.409532264747521e-07
0.08	0.04726546088086778	0.08673713295958049	0.898794641459569	0.2176667181479698	-0.333712865812495	-0.2063123290279476	-0.2414008644841013	0.2981358415255901	0.2981358415255931	-0.07759408140398147	-0.1535978491401409	0.1171473196663688	0.1275542922829633	-0.4421401697764991	-0.2899769827916537	-0.2215209307180053	2.145310216918033	-0.0864386832106236	0.5835858791086961	-0.6021680604024524	2.172995324734265	2.172995324734592	0.3441271731931785	-0.1373512983303595	0.6252004074847182	0.1115882861295647	0.08248510927200463	-0.04116699775660131	0.003120784352938699	-0.1616996092001955	0.0576380161473429	-0.02289586563658819	-0.04389495546469815	-3.80777429349053	10.18081441336885	-1.413433992109905	16.48388106187453	-334.9747834414389	-57.02543802855313	-24.98103159566032	-4.952392729823853	-2.721155141260866	-3.38641976979892	22.05653661558582	-0.6763112738071678	5.842559901766632	-4.930551041232329	21.57787522785331	21.57787522785358	2.910380807971511	-0.6522149955762884	6.022068055986554	1.320257991039728	5.373528141258664e-07	-1.052931904286666e-07	-5.552722820816015e-06	-8.605564204924203e-08	3.193770151387086e-06	4.300727702130742e-06	4.640631045891039e-07
